<svg viewBox="0 0 260 100" width="260" height="87" xmlns="http://www.w3.org/2000/svg" xmlns:svg="http://www.w3.org/2000/svg">
    <g class="layer">
        <title>Layer 1</title>
        <g fill="#fff" id="svg_1">
            <path d="m190.68,0.03c-0.22,0.02 -0.9,0.08 -1.52,0.13c-14.19,1.28 -27.48,8.94 -35.89,20.7c-4.69,6.55 -7.69,13.97 -8.82,21.83c-0.4,2.74 -0.45,3.55 -0.45,7.27c0,3.72 0.05,4.53 0.45,7.28c2.71,18.76 16.06,34.52 34.17,40.36c3.24,1.04 6.66,1.75 10.54,2.18c1.52,0.17 8.06,0.17 9.57,0c6.71,-0.74 12.39,-2.4 18,-5.26c0.86,-0.44 1.02,-0.56 0.91,-0.65c-0.08,-0.06 -3.74,-4.97 -8.14,-10.91l-7.99,-10.79l-10,-14.81c-5.51,-8.15 -10.04,-14.81 -10.08,-14.81c-0.04,-0.01 -0.08,6.57 -0.1,14.61c-0.03,14.07 -0.04,14.64 -0.21,14.97c-0.26,0.48 -0.45,0.67 -0.86,0.89c-0.32,0.15 -0.59,0.18 -2.06,0.18l-1.69,0l-0.45,-0.28c-0.3,-0.19 -0.51,-0.43 -0.66,-0.71l-0.2,-0.44l0.02,-19.58l0.03,-19.59l0.3,-0.38c0.16,-0.2 0.49,-0.47 0.72,-0.59c0.4,-0.2 0.56,-0.22 2.25,-0.22c1.99,0 2.32,0.08 2.84,0.64c0.15,0.16 5.56,8.32 12.05,18.16c6.48,9.83 15.35,23.26 19.7,29.85l7.91,11.98l0.4,-0.26c3.55,-2.31 7.3,-5.59 10.27,-9.01c6.31,-7.25 10.39,-16.1 11.75,-25.53c0.4,-2.75 0.45,-3.56 0.45,-7.28c0,-3.72 -0.05,-4.53 -0.45,-7.27c-2.71,-18.76 -16.06,-34.52 -34.16,-40.36c-3.2,-1.03 -6.59,-1.75 -10.4,-2.18c-0.94,-0.09 -7.39,-0.2 -8.21,-0.12l0.01,0zm20.44,30.21c0.47,0.23 0.85,0.68 0.99,1.15c0.08,0.25 0.1,5.68 0.08,17.92l-0.03,17.56l-3.1,-4.75l-3.1,-4.75l0,-12.76c0,-8.25 0.04,-12.89 0.09,-13.11c0.16,-0.55 0.5,-0.98 0.97,-1.23c0.4,-0.21 0.55,-0.23 2.08,-0.23c1.45,0 1.7,0.02 2.02,0.2z" id="svg_2"/>
            <path d="m102,49.54c0,-6.63 -8.3,-12.91 -21.01,-16.8c2.93,-12.96 1.63,-23.28 -4.12,-26.58c-1.33,-0.77 -2.88,-1.14 -4.57,-1.14l0,4.55c0.94,0 1.69,0.18 2.33,0.53c2.77,1.59 3.97,7.64 3.03,15.43c-0.22,1.91 -0.59,3.93 -1.04,5.99c-3.99,-0.98 -8.35,-1.73 -12.94,-2.22c-2.75,-3.77 -5.61,-7.2 -8.48,-10.19c6.64,-6.18 12.88,-9.56 17.12,-9.56l0,-4.55c-5.6,0 -12.94,4 -20.36,10.93c-7.42,-6.89 -14.76,-10.85 -20.36,-10.85l0,4.55c4.22,0 10.47,3.36 17.12,9.5c-2.85,2.99 -5.71,6.4 -8.42,10.17c-4.61,0.49 -8.97,1.24 -12.96,2.24c-0.47,-2.04 -0.82,-4.02 -1.06,-5.91c-0.96,-7.79 0.22,-13.84 2.97,-15.45c0.61,-0.37 1.41,-0.53 2.35,-0.53l0,-4.55c-1.72,0 -3.27,0.37 -4.61,1.14c-5.73,3.31 -7.01,13.6 -4.06,26.52c-12.67,3.92 -20.93,10.17 -20.93,16.78c0,6.62 8.3,12.9 21.01,16.79c-2.93,12.97 -1.63,23.28 4.12,26.58c1.33,0.78 2.88,1.14 4.59,1.14c5.6,0 12.94,-3.99 20.36,-10.92c7.42,6.89 14.76,10.84 20.36,10.84c1.72,0 3.27,-0.36 4.61,-1.14c5.73,-3.3 7.01,-13.59 4.06,-26.52c12.64,-3.89 20.89,-10.17 20.89,-16.77zm-26.54,-13.6c-0.75,2.63 -1.69,5.34 -2.75,8.05c-0.84,-1.63 -1.71,-3.26 -2.67,-4.89c-0.94,-1.63 -1.94,-3.22 -2.94,-4.77c2.9,0.43 5.69,0.96 8.36,1.61zm-9.33,21.71c-1.59,2.75 -3.22,5.36 -4.92,7.79c-3.03,0.26 -6.11,0.4 -9.21,0.4c-3.08,0 -6.16,-0.14 -9.17,-0.38c-1.69,-2.43 -3.35,-5.02 -4.94,-7.75c-1.54,-2.67 -2.95,-5.38 -4.24,-8.11c1.27,-2.73 2.7,-5.46 4.22,-8.13c1.59,-2.76 3.22,-5.37 4.92,-7.79c3.03,-0.27 6.11,-0.41 9.21,-0.41c3.08,0 6.16,0.14 9.17,0.39c1.69,2.42 3.35,5.01 4.94,7.74c1.54,2.67 2.95,5.39 4.24,8.12c-1.29,2.73 -2.7,5.46 -4.22,8.13zm6.58,-2.65c1.1,2.73 2.04,5.46 2.81,8.11c-2.67,0.65 -5.48,1.21 -8.4,1.63c1,-1.57 2,-3.18 2.94,-4.83c0.94,-1.63 1.81,-3.28 2.65,-4.91zm-20.67,21.75c-1.89,-1.96 -3.79,-4.14 -5.67,-6.52c1.84,0.08 3.71,0.14 5.61,0.14c1.92,0 3.81,-0.04 5.67,-0.14c-1.84,2.38 -3.73,4.56 -5.61,6.52zm-15.16,-12.01c-2.9,-0.42 -5.69,-0.95 -8.36,-1.61c0.75,-2.63 1.69,-5.34 2.75,-8.05c0.84,1.63 1.71,3.26 2.67,4.89s1.94,3.22 2.94,4.77zm15.06,-42.41c1.89,1.95 3.79,4.13 5.67,6.52c-1.84,-0.08 -3.71,-0.14 -5.61,-0.14c-1.92,0 -3.81,0.04 -5.67,0.14c1.84,-2.39 3.73,-4.57 5.61,-6.52zm-15.08,12c-1,1.57 -2,3.18 -2.94,4.83c-0.94,1.63 -1.81,3.26 -2.65,4.89c-1.1,-2.73 -2.04,-5.46 -2.81,-8.11c2.67,-0.63 5.48,-1.18 8.4,-1.61zm-18.45,25.52c-7.22,-3.08 -11.88,-7.11 -11.88,-10.31s4.66,-7.26 11.88,-10.32c1.75,-0.75 3.67,-1.42 5.65,-2.06c1.16,4 2.69,8.16 4.58,12.42c-1.87,4.24 -3.38,8.38 -4.52,12.35c-2.02,-0.63 -3.94,-1.32 -5.71,-2.08zm10.97,29.13c-2.78,-1.59 -3.98,-7.64 -3.04,-15.43c0.22,-1.92 0.59,-3.94 1.04,-5.99c3.99,0.97 8.35,1.73 12.94,2.22c2.75,3.77 5.61,7.19 8.48,10.19c-6.64,6.18 -12.88,9.56 -17.12,9.56c-0.92,-0.02 -1.69,-0.2 -2.3,-0.55zm48.34,-15.53c0.96,7.78 -0.22,13.84 -2.97,15.45c-0.61,0.36 -1.41,0.53 -2.35,0.53c-4.22,0 -10.47,-3.37 -17.12,-9.5c2.85,-3 5.71,-6.4 8.42,-10.17c4.61,-0.49 8.97,-1.25 12.96,-2.24c0.47,2.05 0.84,4.03 1.06,5.93zm7.85,-13.6c-1.75,0.76 -3.67,1.43 -5.65,2.06c-1.16,-4 -2.69,-8.15 -4.58,-12.41c1.87,-4.24 3.38,-8.38 4.52,-12.36c2.02,0.64 3.94,1.33 5.73,2.08c7.22,3.08 11.88,7.12 11.88,10.32c-0.02,3.2 -4.68,7.25 -11.9,10.31z" id="svg_3"/>
            <path d="m51.98,58.86c5.15,0 9.32,-4.17 9.32,-9.32s-4.17,-9.31 -9.32,-9.31c-5.14,0 -9.31,4.17 -9.31,9.31s4.17,9.32 9.31,9.32z" id="svg_4"/>
        </g>
    </g>
</svg>